<svg width="18" height="16" viewBox="0 0 18 16" fill="none" xmlns="http://www.w3.org/2000/svg">
<path d="M2.00019 16.0001V5.10011L0.242188 1.23511L1.15819 0.808105L3.08519 5.05011H14.9152L16.8422 0.808105L17.7582 1.23511L16.0002 5.10011V16.0001H2.00019ZM7.00019 9.5001H11.0002C11.1422 9.5001 11.2609 9.45211 11.3562 9.35611C11.4522 9.26011 11.5002 9.14111 11.5002 8.99911C11.5002 8.85711 11.4522 8.73844 11.3562 8.64311C11.2609 8.54777 11.1422 8.50011 11.0002 8.50011H7.00019C6.85819 8.50011 6.73952 8.54811 6.64419 8.64411C6.54819 8.74011 6.50019 8.85911 6.50019 9.00111C6.50019 9.14311 6.54819 9.26177 6.64419 9.35711C6.74019 9.45244 6.85885 9.5001 7.00019 9.5001ZM3.00019 15.0001H15.0002V6.05011H3.00019V15.0001Z" fill="black"/>
</svg>
