<svg width="24" height="24" viewBox="0 0 24 24" fill="none" xmlns="http://www.w3.org/2000/svg">
<path d="M12.88 23.1511H11.1112C10.7133 23.151 10.3317 22.993 10.0501 22.712C9.76846 22.4309 9.60977 22.0496 9.60881 21.6517V19.7095C9.07084 19.542 8.55167 19.3192 8.05961 19.0447L6.82542 20.2711C6.24882 20.8369 5.27202 20.8315 4.70382 20.2645L3.45341 19.0063C3.17372 18.7239 3.01746 18.342 3.01893 17.9445C3.02039 17.547 3.17945 17.1663 3.46122 16.8859L4.76621 15.5899C4.57427 15.2026 4.41318 14.8008 4.28442 14.3881H2.34521C1.94725 14.3862 1.56619 14.227 1.28517 13.9452C1.00416 13.6634 0.846002 13.2819 0.845215 12.8839V11.1145C0.845532 10.7167 1.00363 10.3352 1.28483 10.0538C1.56603 9.77236 1.94738 9.61396 2.34521 9.61332H4.28742C4.45464 9.0762 4.67745 8.558 4.95221 8.06712L3.50621 6.60672C3.36679 6.46686 3.25654 6.30069 3.18186 6.11787C3.10719 5.93504 3.06958 5.7392 3.07121 5.54172C3.07186 5.34477 3.1116 5.1499 3.18812 4.96843C3.26465 4.78695 3.37644 4.62247 3.51701 4.48452L4.77162 3.23592C5.34642 2.67192 6.32981 2.67792 6.89381 3.24312L8.40822 4.77132C8.79221 4.57932 9.19602 4.41732 9.61362 4.28952V2.34912C9.61362 1.52172 10.2868 0.849121 11.1136 0.849121H12.8848C13.2824 0.849756 13.6635 1.00801 13.9446 1.2892C14.2256 1.57038 14.3837 1.95155 14.3842 2.34912V4.29192C14.8175 4.42617 15.2386 4.59698 15.643 4.80252L17.1718 3.28812C17.7484 2.72172 18.7276 2.73012 19.2934 3.29532L20.5414 4.55292C20.8216 4.83312 20.9764 5.21052 20.9764 5.61492C20.9764 5.81211 20.9372 6.00733 20.8611 6.18923C20.785 6.37113 20.6734 6.53609 20.533 6.67452L19.078 8.12052C19.339 8.59692 19.5514 9.09852 19.711 9.61692H21.655C22.0526 9.61756 22.4337 9.77582 22.7148 10.057C22.9958 10.3382 23.1539 10.7193 23.1544 11.1169V12.8833C23.1543 13.2812 22.9963 13.6627 22.7152 13.9442C22.4341 14.2258 22.0529 14.3843 21.655 14.3851H19.711C19.5774 14.8192 19.4062 15.2408 19.1992 15.6451L20.4946 16.9495C20.7742 17.2261 20.929 17.6041 20.929 18.0115C20.929 18.4111 20.7712 18.7867 20.4856 19.0699L19.231 20.3191C18.6544 20.8849 17.6692 20.8741 17.11 20.3107L15.8854 19.0765C15.4072 19.3393 14.9074 19.5523 14.3932 19.7113V21.6547C14.3865 22.0524 14.2244 22.4316 13.9416 22.7113C13.6588 22.991 13.2777 23.1488 12.88 23.1511ZM7.96901 18.3307L8.15921 18.4429C8.72661 18.7802 9.33581 19.0417 9.97121 19.2205L10.1794 19.2787V21.6505C10.1794 22.1629 10.5976 22.5799 11.1112 22.5799H12.88C13.1272 22.5786 13.3641 22.4807 13.5402 22.3072C13.7163 22.1337 13.8176 21.8983 13.8226 21.6511V19.2823L14.0308 19.2241C14.647 19.0515 15.2381 18.7996 15.7894 18.4747L15.9796 18.3625L17.5138 19.9081C17.86 20.2573 18.4714 20.2633 18.8296 19.9123L20.083 18.6637C20.26 18.4885 20.3578 18.2563 20.3578 18.0103C20.3578 17.7565 20.263 17.5231 20.0908 17.3527L18.4966 15.7465L18.598 15.5605C18.868 15.0637 19.0774 14.5459 19.2214 14.0227L19.2796 13.8133H21.655C22.1674 13.8133 22.5844 13.3957 22.5844 12.8821V11.1157C22.5844 10.6033 22.1674 10.1857 21.655 10.1857H19.2802L19.222 9.97692C19.0504 9.35965 18.7997 8.76714 18.4762 8.21412L18.3646 8.02332L20.1304 6.26832C20.308 6.09192 20.4058 5.85912 20.4058 5.61312C20.4058 5.36112 20.3104 5.12712 20.137 4.95432L18.889 3.69672C18.7125 3.52582 18.4766 3.42997 18.2309 3.4293C17.9853 3.42863 17.7489 3.52319 17.5714 3.69312L15.7456 5.50212L15.5596 5.40192C15.0719 5.1373 14.5561 4.9282 14.0218 4.77852L13.813 4.72032V2.34912C13.813 1.83672 13.396 1.41912 12.8836 1.41912H11.1124C10.6 1.41912 10.183 1.83612 10.183 2.34912V4.71972L9.97422 4.77792C9.45222 4.92252 8.95241 5.12292 8.48741 5.37252L8.29961 5.47332L6.48821 3.64572C6.13962 3.29772 5.52702 3.29232 5.17122 3.64212L3.91782 4.88952C3.83053 4.97491 3.76112 5.07682 3.71363 5.18931C3.66614 5.3018 3.64152 5.42262 3.64121 5.54472C3.64018 5.66723 3.66351 5.78873 3.70987 5.90214C3.75622 6.01555 3.82466 6.11861 3.91122 6.20532L5.66502 7.97712L5.55281 8.16612C5.21558 8.73272 4.95415 9.34111 4.77522 9.97572L4.71702 10.1839H2.34521C1.83281 10.1839 1.41581 10.6015 1.41581 11.1145V12.8839C1.41581 13.3969 1.83281 13.8157 2.34641 13.8175H4.71582L4.77401 14.0263C4.91321 14.5279 5.11302 15.0271 5.36922 15.5113L5.46822 15.6979L3.86382 17.2897C3.68924 17.4633 3.59064 17.6991 3.58963 17.9453C3.58862 18.1915 3.68528 18.4281 3.85842 18.6031L5.10821 19.8607C5.46102 20.2117 6.06761 20.2153 6.42521 19.8643L7.96901 18.3307Z" fill="black"/>
<path d="M11.9999 16.3813C9.58365 16.3813 7.61865 14.4157 7.61865 12.0001C7.61865 9.58328 9.58425 7.61768 11.9999 7.61768C14.4161 7.61768 16.3823 9.58388 16.3823 12.0001C16.3817 14.4163 14.4161 16.3813 11.9999 16.3813ZM11.9999 8.18828C10.9893 8.18955 10.0206 8.59157 9.30612 9.30617C8.59164 10.0208 8.18976 10.9896 8.18865 12.0001C8.18992 13.0105 8.59187 13.9791 9.30633 14.6936C10.0208 15.4081 10.9894 15.81 11.9999 15.8113C13.0104 15.8102 13.9792 15.4083 14.6938 14.6938C15.4084 13.9793 15.8104 13.0106 15.8117 12.0001C15.8102 10.9896 15.4082 10.0208 14.6936 9.3063C13.9791 8.59176 13.0104 8.1897 11.9999 8.18828Z" fill="black"/>
</svg>
